IKResults
version=1
nRows=15
nColumns=42
inDegrees=yes

Units are S.I. units (second, meters, Newtons, ...)
Angles are in degrees.

endheader
time	pelvis_tilt	pelvis_list	pelvis_rotation	pelvis_tx	pelvis_ty	pelvis_tz	hip_flexion_r	hip_adduction_r	hip_rotation_r	knee_angle_r	knee_adduction_r	knee_angle_r_beta	ankle_angle_r	subtalar_angle_r	mtp_angle_r	hip_flexion_l	hip_adduction_l	hip_rotation_l	knee_angle_l	knee_adduction_l	knee_angle_l_beta	ankle_angle_l	subtalar_angle_l	mtp_angle_l	lumbar_extension	lumbar_bending	lumbar_rotation	arm_flex_r	arm_add_r	arm_rot_r	elbow_flex_r	pro_sup_r	wrist_flex_r	wrist_dev_r	arm_flex_l	arm_add_l	arm_rot_l	elbow_flex_l	pro_sup_l	wrist_flex_l	wrist_dev_l
      1.27833766	     -0.64892065	     -0.26271746	      5.39537695	      0.62036180	      0.96292371	      0.03748341	      5.83509603	     -1.36797160	     -6.41486578	     12.03238430	      6.47602164	      0.21000472	      9.27242118	     -8.88380252	      5.86021094	     27.04633174	     -5.35980197	      7.41904854	     97.98293696	      5.09547410	      1.71012486	     10.39877618	     -9.30572988	      3.68930456	    -17.93443424	      2.35147561	     -6.85744443	      2.19745912	    -23.93300900	      0.21257452	     74.99230450	     45.00000142	      0.00000000	      0.00000000	      0.70081591	    -24.28105157	      0.68435079	     74.99230450	     45.00000142	      0.00000000	      0.00000000
      1.28499567	     -0.63595558	     -0.32284202	      5.45681301	      0.62030189	      0.96291522	      0.03742713	      5.80291286	     -1.30229531	     -6.46215718	     11.98069569	      6.47602164	      0.20910259	      9.17611188	     -8.91037688	      5.70623840	     27.02419958	     -5.41142912	      7.42366481	     97.36460076	      5.09547410	      1.69933286	     10.39773907	     -9.30168391	      3.60140272	    -17.94561355	      2.44399118	     -6.88938908	      2.18138795	    -23.95334636	      0.20943175	     74.99257559	     45.00000134	      0.00000000	      0.00000000	      0.72976148	    -24.27653595	      0.68825973	     74.99257559	     45.00000134	      0.00000000	      0.00000000
      1.29165368	     -0.46128688	     -0.33744884	      5.53460137	      0.62024830	      0.96315499	      0.03742595	      5.59681053	     -1.26776582	     -6.64399567	     11.97091022	      6.47602164	      0.20893180	      9.16280206	     -8.91892026	      5.83788248	     26.78798413	     -5.45096937	      7.40569852	     96.68173220	      5.09547410	      1.68741455	     10.47087488	     -9.30691299	      3.73645151	    -18.15586319	      2.47885671	     -6.94187890	      2.22747967	    -23.95814887	      0.21678810	     74.99283498	     45.00000126	      0.00000000	      0.00000000	      0.77829131	    -24.23920184	      0.69200467	     74.99283498	     45.00000126	      0.00000000	      0.00000000
      1.29831169	     -0.34081781	     -0.31141083	      5.57777668	      0.62004077	      0.96332218	      0.03740859	      5.44565634	     -1.28125106	     -6.59842377	     11.91974937	      6.47602164	      0.20803887	      9.28230071	     -8.88766380	      6.21378041	     26.63396024	     -5.40296506	      7.38014044	     96.00934159	      5.09547410	      1.67567912	     10.49235705	     -9.30605401	      4.10782695	    -18.33410367	      2.47943929	     -6.97368700	      2.27445598	    -23.98109944	      0.22439266	     74.99307849	     45.00000118	      0.00000000	      0.00000000	      0.84243734	    -24.33587424	      0.70873824	     74.99307849	     45.00000118	      0.00000000	      0.00000000
      1.30496970	     -0.36901053	     -0.35296980	      5.61297755	      0.61996562	      0.96325052	      0.03741284	      5.47198614	     -1.23473137	     -6.60315735	     11.89604287	      6.47602164	      0.20762512	      9.29088642	     -8.89443982	      6.28326985	     26.65210896	     -5.43796062	      7.35885373	     95.35424913	      5.09547410	      1.66424560	     10.50527543	     -9.30700413	      4.23089679	    -18.29805915	      2.53033129	     -6.97105919	      2.25211127	    -23.99709421	      0.22035484	     74.99336730	     45.00000110	      0.00000000	      0.00000000	      0.87063901	    -24.33627043	      0.71276422	     74.99336730	     45.00000110	      0.00000000	      0.00000000
      1.31162771	     -0.37130305	     -0.39643721	      5.66155591	      0.61988109	      0.96320659	      0.03741705	      5.46891905	     -1.18450805	     -6.62897187	     11.87157105	      6.47602164	      0.20719800	      9.26617458	     -8.91072576	      6.28281971	     26.64638615	     -5.47829306	      7.34164338	     94.69226245	      5.09547410	      1.65269176	     10.51768279	     -9.30845345	      4.31524833	    -18.29639296	      2.58383438	     -6.98753981	      2.23051940	    -24.02220845	      0.21618915	     74.99365065	     45.00000102	      0.00000000	      0.00000000	      0.90097670	    -24.35388103	      0.71854374	     74.99365065	     45.00000102	      0.00000000	      0.00000000
      1.31828571	     -0.37971176	     -0.38642748	      5.61618429	      0.61974339	      0.96319052	      0.03749209	      5.50623043	     -1.18445862	     -6.51228623	     11.92195992	      6.47602164	      0.20807745	      9.59824325	     -8.88795539	      7.53819577	     26.61927197	     -5.47084219	      7.22877701	     94.02724879	      5.09547410	      1.64108508	     10.76007455	     -9.31030994	      5.46138782	    -18.31369791	      2.55924268	     -6.91053854	      2.21217702	    -24.00005487	      0.21429983	     74.99400730	     45.00000092	      0.00000000	      0.00000000	      0.95972017	    -24.35225648	      0.72633673	     74.99400730	     45.00000092	      0.00000000	      0.00000000
      1.32494372	     -0.45765433	     -0.48072727	      5.67514386	      0.61969419	      0.96301922	      0.03743205	      5.58751088	     -1.09446161	     -6.57868629	     11.88380873	      6.47602164	      0.20741159	      9.42568804	     -8.91871258	      7.00002907	     26.71840992	     -5.54899136	      7.24194449	     93.37749896	      5.09547410	      1.62974480	     10.65748640	     -9.31185124	      5.06940913	    -18.19621605	      2.67004075	     -6.93451376	      2.18530470	    -24.05386178	      0.20874258	     74.99424650	     45.00000087	      0.00000000	      0.00000000	      0.95040585	    -24.33259235	      0.72356830	     74.99424650	     45.00000087	      0.00000000	      0.00000000
      1.33160173	     -0.31646786	     -0.42488566	      5.71383755	      0.61957972	      0.96323133	      0.03750575	      5.41042893	     -1.13372651	     -6.60809148	     11.84931792	      6.47602164	      0.20680961	      9.45279297	     -8.90918522	      7.04726751	     26.51629502	     -5.49601854	      7.17485806	     92.64737388	      5.09547410	      1.61700172	     10.65471614	     -9.31935093	      5.22693459	    -18.38778564	      2.61595324	     -6.97400086	      2.22535126	    -24.01242135	      0.21666299	     74.99446813	     45.00000082	      0.00000000	      0.00000000	      0.99607522	    -24.39247571	      0.73473646	     74.99446813	     45.00000082	      0.00000000	      0.00000000
      1.33825974	     -0.60106578	     -0.52061160	      5.65782209	      0.61954039	      0.96274622	      0.03761526	      5.75768863	     -1.05043000	     -6.47076191	     11.85803334	      6.47602164	      0.20696172	      9.32677437	     -8.94597542	      6.48431617	     26.84457954	     -5.60231545	      7.08574409	     92.03203541	      5.09547410	      1.60626204	     10.52566831	     -9.33008207	      4.84254637	    -18.03090155	      2.67120758	     -6.87598347	      2.14428171	    -24.04075073	      0.20237853	     74.99471112	     45.00000077	      0.00000000	      0.00000000	      0.99143895	    -24.37103249	      0.73325451	     74.99471112	     45.00000077	      0.00000000	      0.00000000
      1.34491775	     -0.27130857	     -0.46358108	      5.78769513	      0.61932022	      0.96322699	      0.03750824	      5.34870295	     -1.08695380	     -6.64036905	     11.78551943	      6.47602164	      0.20569612	      9.35592685	     -8.92023233	      6.95124524	     26.45878183	     -5.51403446	      7.10624140	     91.31286194	      5.09547410	      1.59371009	     10.66166785	     -9.32454333	      5.39860294	    -18.47763159	      2.67125151	     -6.99418347	      2.18414346	    -24.01253649	      0.20992614	     74.99489874	     45.00000073	      0.00000000	      0.00000000	      1.03149830	    -24.40616228	      0.74090956	     74.99489874	     45.00000073	      0.00000000	      0.00000000
      1.35157576	     -0.28924053	     -0.57637986	      5.82147847	      0.61930824	      0.96312142	      0.03755446	      5.36077122	     -0.95367009	     -6.67960193	     11.75381396	      6.47602164	      0.20514275	      9.35889915	     -8.93718723	      6.90589026	     26.48793744	     -5.63834686	      7.09571637	     90.67299272	      5.09547410	      1.58254227	     10.67418607	     -9.33444003	      5.50338674	    -18.41013428	      2.78717178	     -6.98173127	      2.20858173	    -24.04476514	      0.21337382	     74.99510490	     45.00000069	      0.00000000	      0.00000000	      1.08198931	    -24.42242856	      0.74974544	     74.99510490	     45.00000069	      0.00000000	      0.00000000
      1.35823377	     -0.37159051	     -0.66716719	      5.82229847	      0.61926080	      0.96295277	      0.03752361	      5.44931668	     -0.86354561	     -6.64786045	     11.70975962	      6.47602164	      0.20437386	      9.27013915	     -8.94883386	      6.67837319	     26.58467192	     -5.72287366	      7.05556421	     90.03789374	      5.09547410	      1.57145770	     10.65247511	     -9.33745203	      5.39191474	    -18.29659192	      2.89069511	     -6.94061352	      2.17176021	    -24.08709942	      0.20662478	     74.99529048	     45.00000066	      0.00000000	      0.00000000	      1.08877608	    -24.37660509	      0.74748516	     74.99529048	     45.00000066	      0.00000000	      0.00000000
      1.36489177	     -0.39109294	     -0.72366950	      5.85214183	      0.61920996	      0.96286602	      0.03757344	      5.45807070	     -0.79780365	     -6.65235130	     11.66098170	      6.47602164	      0.20352252	      9.18323147	     -8.97260197	      6.51166956	     26.61501468	     -5.78276317	      7.01714501	     89.40380058	      5.09547410	      1.56039068	     10.64613847	     -9.33999488	      5.34140281	    -18.26197214	      2.94195657	     -6.94558138	      2.14918974	    -24.09910080	      0.20272158	     74.99545649	     45.00000063	      0.00000000	      0.00000000	      1.09599382	    -24.38459837	      0.74925465	     74.99545649	     45.00000063	      0.00000000	      0.00000000
      1.37154978	     -0.26635600	     -0.73951768	      5.90401629	      0.61908632	      0.96298194	      0.03755181	      5.31270310	     -0.76653441	     -6.73042486	     11.63829556	      6.47602164	      0.20312658	      9.20459986	     -8.96863857	      6.59223098	     26.48457511	     -5.78722833	      6.99506649	     88.77250159	      5.09547410	      1.54937244	     10.69500566	     -9.34256528	      5.57295591	    -18.40066671	      2.97829305	     -6.97966776	      2.19429436	    -24.11184034	      0.21012893	     74.99561672	     45.00000060	      0.00000000	      0.00000000	      1.13034129	    -24.44824523	      0.75886471	     74.99561672	     45.00000060	      0.00000000	      0.00000000
